<mxfile host="app.diagrams.net" modified="2022-06-15T08:11:33.986Z" agent="5.0 (Macintosh; Intel Mac OS X 10_15_7) AppleWebKit/537.36 (KHTML, like Gecko) Chrome/102.0.5005.61 Safari/537.36" etag="ZWkUiAaRjGSPAYGx4hET" version="17.4.3" type="github">
  <diagram id="qxaiHqc6YlpH9HMH1t6U" name="Page-1">
    <mxGraphModel dx="1044" dy="942" grid="1" gridSize="10" guides="1" tooltips="1" connect="1" arrows="1" fold="1" page="1" pageScale="1" pageWidth="827" pageHeight="1169" math="0" shadow="0">
      <root>
        <mxCell id="0" />
        <mxCell id="1" parent="0" />
        <mxCell id="MKav-77n5-qQdXRwwA8y-4" style="edgeStyle=orthogonalEdgeStyle;rounded=0;orthogonalLoop=1;jettySize=auto;html=1;fontSize=15;" edge="1" parent="1" source="MKav-77n5-qQdXRwwA8y-1">
          <mxGeometry relative="1" as="geometry">
            <mxPoint x="410" y="640" as="targetPoint" />
          </mxGeometry>
        </mxCell>
        <mxCell id="MKav-77n5-qQdXRwwA8y-1" value="&lt;font style=&quot;font-size: 15px&quot;&gt;setupParticles&lt;/font&gt;" style="rounded=1;whiteSpace=wrap;html=1;" vertex="1" parent="1">
          <mxGeometry x="350" y="450" width="120" height="60" as="geometry" />
        </mxCell>
        <mxCell id="MKav-77n5-qQdXRwwA8y-2" value="初始化质子信息&lt;br&gt;&lt;div&gt;&lt;br&gt;&lt;/div&gt;&lt;div&gt;&amp;nbsp; &amp;nbsp; &amp;nbsp; &amp;nbsp; m_LocalGravity = m_Root.InverseTransformDirection(m_Gravity); // 世界坐标-&amp;gt;局部坐标转换，获取本地重力方向&lt;/div&gt;&lt;div&gt;&amp;nbsp; &amp;nbsp; &amp;nbsp; &amp;nbsp; m_ObjectScale = Mathf.Abs(transform.lossyScale.x); // 全局缩放比例&lt;/div&gt;&lt;div&gt;&amp;nbsp; &amp;nbsp; &amp;nbsp; &amp;nbsp; m_ObjectPrevPosition = transform.position; // 初始化上一帧的位置&lt;/div&gt;&lt;div&gt;&amp;nbsp; &amp;nbsp; &amp;nbsp; &amp;nbsp; m_ObjectMove = Vector3.zero; // 初始化移动方向&lt;/div&gt;&lt;div&gt;&amp;nbsp; &amp;nbsp; &amp;nbsp; &amp;nbsp; m_BoneTotalLength = 0; // 骨骼总长度&lt;/div&gt;&lt;div&gt;&amp;nbsp; &amp;nbsp; &amp;nbsp; &amp;nbsp; AppendParticles(m_Root, -1, 0); // 递归添加子节点质点信息&lt;/div&gt;&lt;div&gt;&amp;nbsp; &amp;nbsp; &amp;nbsp; &amp;nbsp; UpdateParameters(); // 更新参数&lt;/div&gt;" style="shape=note;size=20;whiteSpace=wrap;html=1;fontSize=15;" vertex="1" parent="1">
          <mxGeometry x="490" y="240" width="820" height="230" as="geometry" />
        </mxCell>
        <mxCell id="MKav-77n5-qQdXRwwA8y-5" value="&lt;font style=&quot;font-size: 15px&quot;&gt;AppendParticles&lt;/font&gt;" style="rounded=1;whiteSpace=wrap;html=1;" vertex="1" parent="1">
          <mxGeometry x="350" y="640" width="120" height="60" as="geometry" />
        </mxCell>
        <mxCell id="MKav-77n5-qQdXRwwA8y-6" value="递归初始化质子，同时还创建尾节点的质子" style="shape=note;size=20;whiteSpace=wrap;html=1;fontSize=15;" vertex="1" parent="1">
          <mxGeometry x="520" y="610" width="260" height="100" as="geometry" />
        </mxCell>
      </root>
    </mxGraphModel>
  </diagram>
</mxfile>
